<?xml version="1.0" encoding="UTF-8"?> <svg xmlns="http://www.w3.org/2000/svg" xmlns:xlink="http://www.w3.org/1999/xlink" width="256px" height="256px" viewBox="0 0 256 256" version="1.1"><title>MOC_Section</title><g id="Desktop" stroke="none" stroke-width="1" fill="none" fill-rule="evenodd"><g id="MOC" transform="translate(-936, -266)" fill="#56BEB7"><g id="MOC_Section" transform="translate(936, 266)"><polygon id="Fill-5" points="58.3894476 95.2098285 73.3170203 138.193782 87.435692 95.2098285 108.926764 95.2098285 108.926764 158.157533 93.1902902 158.157533 93.1902902 120.028796 79.2525808 158.157533 66.1219629 158.157533 52.1842535 120.028796 52.1842535 158.157533 36.4477797 158.157533 36.4477797 95.2098285"></polygon><path d="M147.143268,134.956911 C147.143268,131.540345 146.303604,128.796958 144.626084,126.72856 C142.946755,124.660161 140.639487,123.626867 137.70066,123.626867 C134.763644,123.626867 132.454566,124.660161 130.777046,126.72856 C129.097717,128.796958 128.258052,131.540345 128.258052,134.956911 C128.258052,138.373478 129.097717,141.116865 130.777046,143.185263 C132.454566,145.253661 134.763644,146.286955 137.70066,146.286955 C140.639487,146.286955 142.946755,145.253661 144.626084,143.185263 C146.303604,141.116865 147.143268,138.373478 147.143268,134.956911 M115.534599,147.455971 C113.466201,143.860252 112.432907,139.692692 112.432907,134.956911 C112.432907,130.22113 113.466201,126.05357 115.534599,122.457851 C117.602997,118.860323 120.540014,116.087982 124.347459,114.139019 C128.154904,112.190056 132.604764,111.216479 137.70066,111.216479 C142.796556,111.216479 147.248226,112.190056 151.055671,114.139019 C154.861307,116.087982 157.800133,118.860323 159.868531,122.457851 C161.935119,126.05357 162.970223,130.22113 162.970223,134.956911 C162.970223,139.692692 161.935119,143.860252 159.868531,147.455971 C157.800133,151.0535 154.861307,153.825841 151.055671,155.774804 C147.248226,157.723767 142.796556,158.697344 137.70066,158.697344 C132.604764,158.697344 128.154904,157.723767 124.347459,155.774804 C120.540014,153.825841 117.602997,151.0535 115.534599,147.455971" id="Fill-7"></path><path d="M180.278535,98.6269379 C184.985362,95.9885089 190.544521,94.671104 196.959631,94.671104 C202.055527,94.671104 206.612156,95.6899213 210.627707,97.7275557 C214.645068,99.7651902 217.851718,102.599058 220.249468,106.225541 C222.649027,109.852024 224.026149,114.003297 224.386264,118.67936 L207.840889,118.67936 C207.241904,115.563191 205.906403,113.060484 203.839815,111.171238 C201.771416,109.283802 199.178228,108.33918 196.060249,108.33918 C191.804018,108.33918 188.492409,110.016699 186.123614,113.375358 C183.754819,116.732207 182.571326,121.167591 182.571326,126.683319 C182.571326,132.199047 183.754819,136.636241 186.123614,139.99309 C188.492409,143.349939 191.804018,145.029268 196.060249,145.029268 C199.178228,145.029268 201.771416,144.084645 203.839815,142.1954 C205.906403,140.307964 207.241904,137.805256 207.840889,134.687278 L224.386264,134.687278 C224.026149,139.363341 222.649027,143.514614 220.249468,147.141097 C217.851718,150.769389 214.645068,153.601448 210.627707,155.639082 C206.612156,157.678526 202.055527,158.697344 196.959631,158.697344 C190.544521,158.697344 184.985362,157.378129 180.278535,154.7397 C175.571708,152.103081 171.959702,148.386117 169.442518,143.588809 C166.925333,138.79331 165.665836,133.158147 165.665836,126.683319 C165.665836,120.208491 166.925333,114.573328 169.442518,109.777829 C171.959702,104.982331 175.571708,101.265367 180.278535,98.6269379" id="Fill-9"></path><path d="M128,0 C57.3071127,0 0,57.3071127 0,128 C0,198.691078 57.3071127,256 128,256 C198.692887,256 256,198.691078 256,128 C256,57.3071127 198.692887,0 128,0 M128,15.8468607 C143.144727,15.8468607 157.83162,18.8110217 171.651704,24.6579107 C185.004906,30.3057413 197.000891,38.3929425 207.303069,48.6969307 C217.607058,58.9991093 225.694259,70.9932846 231.342089,84.3482957 C237.187169,98.1683797 240.15133,112.855273 240.15133,128 C240.15133,143.144727 237.187169,157.83162 231.342089,171.651704 C225.694259,185.004906 217.607058,197.000891 207.303069,207.303069 C197.000891,217.605248 185.004906,225.694259 171.651704,231.342089 C157.83162,237.187169 143.144727,240.15133 128,240.15133 C112.855273,240.15133 98.1683797,237.187169 84.3482957,231.342089 C70.9950942,225.694259 58.9991093,217.605248 48.6969307,207.303069 C38.3929425,197.000891 30.3057413,185.004906 24.6579107,171.651704 C18.8128314,157.83162 15.8486704,143.144727 15.8486704,128 C15.8486704,112.855273 18.8128314,98.1683797 24.6579107,84.3482957 C30.3057413,70.9932846 38.3929425,58.9991093 48.6969307,48.6969307 C58.9991093,38.3929425 70.9950942,30.3057413 84.3482957,24.6579107 C98.1683797,18.8110217 112.855273,15.8468607 128,15.8468607" id="Fill-11"></path></g></g></g></svg> 