<?xml version="1.0" encoding="UTF-8"?>
<svg id="Layer_2" data-name="Layer 2" xmlns="http://www.w3.org/2000/svg" viewBox="0 0 560 560">
  <defs>
    <style>
      .cls-1 {
        fill: none;
      }

      .cls-2 {
        fill: #4b5cf0;
      }

      .cls-3 {
        fill: #fff;
      }
    </style>
  </defs>
  <g id="Layer_1-2" data-name="Layer 1">
    <g>
      <rect class="cls-1" y="0" width="560" height="560"/>
      <g>
        <path class="cls-2" d="M325.51,15.49l66.22,50.96c5.2,4,10.89,7.29,16.94,9.8l77.15,31.99c31.27,12.97,49.95,45.38,45.51,79l-10.93,82.95c-.86,6.51-.86,13.1,0,19.61l10.93,82.95c4.43,33.62-14.24,66.03-45.51,79l-77.15,31.99c-6.05,2.51-11.75,5.81-16.94,9.8l-66.22,50.96c-26.84,20.66-64.19,20.66-91.03,0l-66.22-50.96c-5.2-4-10.89-7.29-16.94-9.8l-77.15-31.99c-31.27-12.97-49.95-45.38-45.51-79l10.93-82.95c.86-6.51.86-13.1,0-19.61l-10.93-82.95c-4.43-33.62,14.24-66.03,45.51-79l77.15-31.99c6.05-2.51,11.75-5.81,16.94-9.8L234.49,15.49c26.84-20.66,64.19-20.66,91.03,0Z"/>
        <g>
          <path class="cls-3" d="M386.37,179.46v223.48s-48.35,0-48.35,0v-116.72s-39.81,0-39.81,0c-4.65,0-9.13,1.72-12.58,4.81-1.97,1.77-3.5,3.91-4.56,6.27-1.05,2.36-1.61,4.94-1.61,7.57v26.95c0,7.23-5.91,13.1-13.18,13.1h-32.19c-7.28,0-13.18-5.87-13.18-13.1v-32.49c0-7.24,5.9-13.1,13.18-13.1h28.94c3.88,0,7.61-1.36,10.58-3.83,1.86-1.55,3.32-3.47,4.32-5.61,1-2.13,1.53-4.48,1.53-6.88v-42.39s-117,0-117,0v-48.05s223.93,0,223.93,0Z"/>
          <path class="cls-3" d="M223.72,373.6v.5c0,16.07-13.12,29.1-29.28,29.1-16.16,0-29.28-13.03-29.28-29.1v-.5c0-16.07,13.11-29.1,29.28-29.1,8.07,0,15.4,3.25,20.7,8.52,5.31,5.27,8.58,12.55,8.58,20.58Z"/>
        </g>
      </g>
    </g>
  </g>
</svg>