<?xml version="1.0" encoding="UTF-8"?>
<svg id="Layer_2" data-name="Layer 2" xmlns="http://www.w3.org/2000/svg" viewBox="0 0 1089.65 400">
  <defs>
    <style>
      .cls-1 {
        fill: #fff;
      }
    </style>
  </defs>
  <g id="Layer_1-2" data-name="Layer 1">
    <g>
      <g>
        <path class="cls-1" d="M1007.47,300c-47.53,0-89.47-27.47-89.47-76.92v-46.15c0-49.45,41.95-76.92,89.47-76.92s82.18,27.47,82.18,72.53v1.65h-43.72v-2.75c0-22.8-13.64-33.01-39.46-33.01s-40.21,14.76-40.21,41.96v39.25c0,26.65,14.39,41.96,40.21,41.96s39.46-10.76,39.46-33.01v-4.94h43.72v3.85c0,45.05-34.93,72.53-82.18,72.53Z"/>
        <path class="cls-1" d="M849.9,293h-43.8v-149.18h-60.1v-36.82h164v36.82h-60.1v149.18Z"/>
        <path class="cls-1" d="M681.43,293h-95.93V107h94.79c32.93,0,51.46,23.66,51.46,46.26s-4.25,33.91-21.46,42.05v4.78c21.46,4.99,31.71,15.49,31.71,43.74s-23.71,49.16-60.57,49.16ZM629.5,215.5v40.69h41.5c16.29,0,24.5-8.96,24.5-20.34s-8-20.34-24.5-20.34h-41.5ZM629.5,139.94v40.68h41.5c15.71,0,19.5-12.59,19.5-20.34s-4.88-20.34-19.5-20.34h-41.5Z"/>
        <path class="cls-1" d="M561,157v50.5h-28v-12.23h-1.28c-17.58,0-30.72,9.23-30.72,28.73v69h-41v-136h41v15.43h4.88c4.12-10.99,14.02-15.43,26.38-15.43h28.73Z"/>
      </g>
      <g>
        <path class="cls-1" d="M212.51,11.07l47.3,36.4c3.71,2.86,7.78,5.21,12.1,7l55.11,22.85c22.34,9.26,35.68,32.41,32.51,56.43l-7.81,59.25c-.61,4.65-.61,9.36,0,14l7.81,59.25c3.16,24.02-10.17,47.17-32.51,56.43l-55.11,22.85c-4.32,1.79-8.39,4.15-12.1,7l-47.3,36.4c-19.17,14.75-45.85,14.75-65.02,0l-47.3-36.4c-3.71-2.86-7.78-5.21-12.1-7l-55.11-22.85C10.63,313.42-2.7,290.27.46,266.25l7.81-59.25c.61-4.65.61-9.36,0-14L.46,133.75c-3.16-24.02,10.17-47.17,32.51-56.43l55.11-22.85c4.32-1.79,8.39-4.15,12.1-7l47.3-36.4c19.17-14.75,45.85-14.75,65.02,0Z"/>
        <path d="M253.44,157.8c-2.42-25.12-24.08-33.54-51.44-35.95v-34.85h-21v35h-17v-35h-21v35c-5,0-9.38,0-13.77.01l-29.23-.13v22.65s15.66-.29,15.4,0c8.58,0,11.38,4.99,12.19,9.3l.02,95.45c-.37,2.7-1.96,7.01-7.96,7.02.27.24-15.4,0-15.4,0l-4.25,25.71s38.01,0,43,0v34.99h21v-35c6,0,11.51,0,17,0v35h21v-35c35.62-2.04,60.6-11.19,63.69-44.67,2.49-26.96-10.18-38.99-30.4-43.86,12.28-6.26,19.96-17.29,18.16-35.67h0s0,0,0,0ZM223.81,233.14c.02,26.33-45.45,23.33-59.81,23.34v-46.69c14.36,0,59.81-4.12,59.81,23.35h0ZM213.94,167.27c0,23.96-37.98,21.15-49.94,21.15v-42.34c11.95,0,49.93-3.8,49.94,21.19h0Z"/>
      </g>
    </g>
  </g>
</svg>